<svg width="30" height="30" viewBox="0 0 30 30" fill="none" xmlns="http://www.w3.org/2000/svg">
<g clip-path="url(#clip0_8_835)">
<path d="M23.1249 11.8746H5.62443C4.59064 11.8746 3.74939 12.7158 3.74939 13.7496V14.9996C3.74939 19.4597 6.2132 23.5048 10.1783 25.5561C10.4845 25.7136 10.862 25.5949 11.0208 25.2874C11.1783 24.9811 11.0595 24.6036 10.752 24.4448C7.20445 22.6098 4.9994 18.991 4.9994 14.9996V13.7496C4.9994 13.4046 5.27943 13.1245 5.62443 13.1245H23.1249C23.4699 13.1245 23.7499 13.4046 23.7499 13.7496V14.9996C23.7499 18.9909 21.5448 22.6097 17.996 24.4435C17.6885 24.6023 17.5698 24.9798 17.7273 25.2861C17.8385 25.5011 18.0573 25.6248 18.2835 25.6248C18.381 25.6248 18.4785 25.6023 18.5697 25.5548C22.5361 23.5047 24.9999 19.4609 24.9999 14.9995V13.7495C24.9999 12.7158 24.1586 11.8746 23.1249 11.8746Z" fill="black"/>
<path d="M28.7037 24.7599C28.6062 24.5261 28.3787 24.3736 28.1262 24.3736H0.625575C0.373089 24.3736 0.145564 24.5261 0.0480619 24.7599C-0.0494404 24.9936 0.00429136 25.2624 0.183065 25.4411L1.58437 26.8437C2.41191 27.6699 3.50939 28.125 4.67819 28.125H24.0711C25.2399 28.125 26.3387 27.67 27.1675 26.8437L28.5688 25.4411C28.7475 25.2624 28.8012 24.9936 28.7037 24.7599ZM26.2824 25.9599C25.6925 26.5499 24.9062 26.8749 24.0724 26.8749H4.67819C3.84444 26.8749 3.05815 26.5499 2.46816 25.9599L2.13317 25.6249H26.6174L26.2824 25.9599Z" fill="black"/>
<path d="M28.7912 14.8259C27.1074 13.7433 24.4173 14.9184 24.116 15.0546C23.8023 15.1984 23.6623 15.5684 23.806 15.8834C23.9497 16.1984 24.3185 16.3371 24.6348 16.1934C25.2373 15.9197 27.1698 15.2709 28.1149 15.8796C28.5412 16.1534 28.7499 16.6847 28.7499 17.4997C28.7499 20.0022 23.7022 21.5148 21.7534 21.8873L21.3109 21.9748C20.9722 22.041 20.7521 22.3697 20.8184 22.7085C20.8772 23.006 21.1384 23.2123 21.4309 23.2123C21.4709 23.2123 21.5109 23.2085 21.5521 23.1998L21.9909 23.1135C22.3184 23.051 29.9999 21.5448 29.9999 17.4997C29.9999 16.2422 29.5925 15.3434 28.7912 14.8259Z" fill="black"/>
<path d="M19.241 6.63939C20.2573 5.36935 20.2573 3.38057 19.241 2.11052C19.0247 1.84051 18.6335 1.79551 18.3622 2.01302C18.0922 2.22929 18.0485 2.62176 18.2647 2.89177C18.9085 3.69552 18.9085 5.05434 18.2635 5.86061C17.246 7.13066 17.246 9.11943 18.2635 10.3895C18.3873 10.5445 18.5685 10.6245 18.7522 10.6245C18.8885 10.6245 19.0272 10.5795 19.1423 10.487C19.4123 10.2707 19.456 9.87695 19.2398 9.60823C18.5947 8.80443 18.5947 7.44566 19.241 6.63939Z" fill="black"/>
<path d="M15.4859 6.63943C16.5034 5.36938 16.5034 3.3806 15.4859 2.11055C15.2709 1.84055 14.8772 1.79677 14.6072 2.01305C14.3371 2.22932 14.2934 2.62308 14.5097 2.8918C15.1547 3.69555 15.1547 5.05437 14.5084 5.86064C13.4921 7.13069 13.4921 9.11946 14.5084 10.3895C14.6322 10.5445 14.8134 10.6245 14.9972 10.6245C15.1334 10.6245 15.2709 10.5795 15.3872 10.487C15.6572 10.2707 15.7009 9.87827 15.4847 9.60827C14.8409 8.80446 14.8409 7.4457 15.4859 6.63943Z" fill="black"/>
<path d="M11.7409 6.64062C12.7571 5.37057 12.7571 3.38179 11.7409 2.11174C11.5259 1.84173 11.1333 1.79673 10.8621 2.01424C10.5933 2.22922 10.5496 2.62298 10.7646 2.89176C11.4084 3.69551 11.4084 5.05433 10.7634 5.8606C9.74587 7.13065 9.74587 9.11942 10.7634 10.3895C10.8871 10.5445 11.0684 10.6245 11.2521 10.6245C11.3884 10.6245 11.5271 10.5795 11.6421 10.4883C11.9121 10.272 11.9559 9.87823 11.7396 9.60951C11.0946 8.80442 11.0946 7.44688 11.7409 6.64062Z" fill="black"/>
</g>
<defs>
<clipPath id="clip0_8_835">
<rect width="30" height="30" fill="white"/>
</clipPath>
</defs>
</svg>
