<svg width="30" height="30" viewBox="0 0 30 30" fill="none" xmlns="http://www.w3.org/2000/svg">
<path d="M20.4754 14.0431C20.4754 10.0616 16.9736 6.82245 12.6692 6.82245C8.36489 6.82245 4.86304 10.0616 4.86304 14.0431C4.86304 18.0247 8.36489 21.2639 12.6692 21.2639C16.9736 21.2639 20.4754 18.0247 20.4754 14.0431ZM5.74188 14.0431C5.74188 10.5462 8.84949 7.7013 12.6692 7.7013C16.489 7.7013 19.5966 10.5462 19.5966 14.0431C19.5966 17.5401 16.489 20.385 12.6692 20.385C8.84949 20.385 5.74188 17.54 5.74188 14.0431Z" fill="black"/>
<path d="M13.6804 17.6385C13.9279 17.6798 14.173 17.7003 14.414 17.7003C15.3442 17.7003 16.2123 17.3957 16.9122 16.8138C18.0883 15.8359 18.761 14.4981 18.7118 13.2351C18.6716 12.2044 18.1569 11.3106 17.2234 10.6502C15.6668 9.54905 14.4314 10.6305 13.4387 11.4994C12.8242 12.0373 12.2438 12.5454 11.6618 12.5752C10.9686 12.6108 10.5944 12.407 10.1985 12.1912C9.64999 11.8924 9.02833 11.5536 7.78764 11.9657C7.78307 11.9673 7.77903 11.9695 7.77481 11.9717C7.30069 12.1061 6.61071 12.5166 6.62372 13.7665C6.63374 14.7446 7.04222 15.5552 7.80493 16.1108C8.54536 16.6502 9.50015 16.8624 10.3853 16.8624C10.8265 16.8624 11.2495 16.809 11.621 16.7177C12.1937 17.1837 12.9092 17.5097 13.6804 17.6385ZM11.7069 13.4529C12.5933 13.4074 13.3174 12.7736 14.0177 12.1607C15.076 11.2343 15.7726 10.7003 16.716 11.3677C17.4281 11.8714 17.8041 12.5112 17.8336 13.2694C17.8717 14.2464 17.3034 15.3457 16.3503 16.1381C15.6687 16.7048 14.7721 16.9298 13.8252 16.7717C12.8455 16.6081 11.9847 16.0566 11.5226 15.2965L11.4028 15.099C10.9702 14.386 10.5475 13.6891 10.098 13.1307C10.4872 13.3205 10.9798 13.4903 11.7069 13.4529ZM8.32252 15.4003C7.78565 15.0092 7.50977 14.4565 7.50262 13.7573C7.49453 12.9789 7.84911 12.8558 8.03141 12.8122C8.91629 12.6957 9.75945 14.0844 10.6514 15.5548L10.7717 15.753C10.8136 15.822 10.8586 15.8892 10.9053 15.9554C10.0429 16.0545 9.02452 15.9118 8.32252 15.4003Z" fill="black"/>
<path d="M27.55 24.3602C27.4997 23.069 26.8531 21.9479 25.6802 21.1181C24.8105 20.5028 23.9422 20.3813 23.0259 20.7466C22.8163 20.8301 22.613 20.9366 22.4145 21.0584C22.786 15.3574 22.702 9.58728 22.1641 3.88819C22.331 3.62046 22.6559 3.01866 22.8595 2.11754C22.9798 1.58495 22.7532 1.06114 22.2822 0.782982C21.8185 0.509155 21.2595 0.562654 20.8581 0.919163C20.6508 1.10328 20.4547 1.21742 20.1185 1.21742C19.6772 1.21742 19.4705 1.01479 19.1844 0.734346C18.8506 0.407195 18.4354 0 17.635 0C16.8346 0 16.4194 0.407195 16.0857 0.734404C15.7998 1.01485 15.5931 1.21742 15.1518 1.21742C14.7104 1.21742 14.5038 1.01479 14.2178 0.734346C13.8841 0.407195 13.4688 0 12.6685 0C11.8682 0 11.4529 0.407195 11.1193 0.734404C10.8332 1.01485 10.6266 1.21748 10.1853 1.21748C9.74409 1.21748 9.53748 1.01485 9.25146 0.734463C8.91781 0.407195 8.50247 0 7.7022 0C6.90199 0 6.48677 0.407195 6.15311 0.734404C5.86716 1.01485 5.6606 1.21742 5.21942 1.21742C4.8833 1.21742 4.68729 1.10328 4.48003 0.919163C4.07864 0.562596 3.51979 0.509155 3.05611 0.782864C2.5851 1.06097 2.35857 1.58471 2.47887 2.11725C2.6822 3.01754 3.00665 3.61905 3.17383 3.88725C3.0816 4.86202 3.00191 5.84183 2.9378 6.8033C2.92169 7.04549 3.10486 7.25486 3.34705 7.27103C3.58935 7.2872 3.7986 7.10397 3.81477 6.86178C3.87519 5.95586 3.94902 5.03336 4.03469 4.11437C9.76613 3.42339 15.572 3.42333 21.3035 4.11437C21.848 9.9674 21.9091 15.8952 21.4867 21.7423C21.3041 21.8948 21.1242 22.052 20.946 22.208L20.8233 22.3153C20.6406 22.4749 20.6217 22.7525 20.7814 22.9353C20.941 23.1181 21.2186 23.1369 21.4014 22.9772L21.5249 22.8693C22.9405 21.6299 23.874 20.9169 25.1727 21.8355C26.1276 22.511 26.632 23.372 26.6719 24.3943C26.7227 25.697 25.9701 27.1582 24.7079 28.2078C23.7971 28.9649 22.6007 29.2658 21.3389 29.0549C20.0358 28.8372 18.89 28.1018 18.2735 27.0876L18.117 26.8299C17.4131 25.6698 16.7297 24.5434 15.9764 23.7758C16.0459 23.8122 16.1164 23.8506 16.1891 23.8903C16.7439 24.1925 17.4345 24.5686 18.6148 24.5082C19.0434 24.4863 19.4735 24.3499 19.9298 24.0914C20.141 23.9717 20.2152 23.7036 20.0955 23.4924C19.9759 23.2813 19.7079 23.2071 19.4966 23.3267C19.162 23.5163 18.8588 23.6157 18.5698 23.6306C17.6369 23.6784 17.138 23.4064 16.6097 23.1186C15.89 22.7264 15.1459 22.3209 13.5948 22.8362C13.5886 22.8383 13.5828 22.8411 13.5773 22.8443C12.6382 23.1048 12.3134 23.8496 12.2154 24.4912C9.49834 24.4735 6.75005 24.2992 4.03469 23.9717C3.55947 18.8629 3.451 13.6902 3.71252 8.59164C3.72494 8.34929 3.53855 8.14273 3.29619 8.13025C3.05342 8.11794 2.84721 8.30422 2.83479 8.54658C2.56776 13.7529 2.6839 19.0352 3.1787 24.25C3.01292 24.5141 2.6839 25.1185 2.47869 26.0278C2.35827 26.5604 2.58469 27.0842 3.05558 27.3623C3.51927 27.6362 4.07835 27.5827 4.47992 27.226C4.68712 27.0419 4.88313 26.9278 5.21954 26.9278C5.66107 26.9278 5.86774 27.1304 6.15382 27.4108C6.48753 27.7379 6.90293 28.145 7.70326 28.145C8.50329 28.145 8.91851 27.738 9.25211 27.4109C9.53818 27.1304 9.74486 26.9278 10.1864 26.9278C10.6275 26.9278 10.8341 27.1304 11.12 27.4107C11.4537 27.7378 11.8691 28.145 12.6695 28.145C13.0665 28.145 13.3636 28.0418 13.5863 27.9187C13.6084 27.9355 13.6295 27.953 13.652 27.9694C14.5859 28.6497 15.7914 28.9175 16.9102 28.9175C17.4954 28.9175 18.0562 28.8438 18.5427 28.718C19.2736 29.3281 20.1966 29.7552 21.1939 29.9218C21.5067 29.9741 21.8164 29.9999 22.1209 29.9999C23.2939 29.9999 24.3879 29.6165 25.2695 28.8837C26.7597 27.6447 27.6122 25.9537 27.55 24.3602ZM3.82304 3.25533C3.68176 2.99534 3.47667 2.54601 3.33609 1.92364C3.28329 1.68996 3.45047 1.57071 3.50298 1.53971C3.56656 1.50215 3.73233 1.43049 3.8964 1.57622C4.169 1.81834 4.5657 2.09627 5.21948 2.09627C6.01969 2.09627 6.43491 1.68908 6.76857 1.36187C7.05452 1.08142 7.26108 0.878847 7.70226 0.878847C8.14356 0.878847 8.35017 1.08148 8.63619 1.36187C8.96984 1.68908 9.38513 2.09627 10.1854 2.09627C10.9857 2.09627 11.401 1.68908 11.7347 1.36187C12.0207 1.08142 12.2273 0.878847 12.6686 0.878847C13.1099 0.878847 13.3166 1.08148 13.6026 1.36193C13.9363 1.68914 14.3516 2.09633 15.1519 2.09633C15.9522 2.09633 16.3674 1.68914 16.7011 1.36193C16.9871 1.08148 17.1937 0.878847 17.6351 0.878847C18.0764 0.878847 18.2831 1.08148 18.5692 1.36193C18.903 1.68914 19.3182 2.09633 20.1186 2.09633C20.7725 2.09633 21.1692 1.8184 21.4418 1.57628C21.606 1.43043 21.7718 1.50215 21.8354 1.53977C21.8879 1.57077 22.0552 1.69007 22.0023 1.92382C21.8617 2.54642 21.6564 2.9958 21.5155 3.25533C15.6439 2.53868 9.6944 2.53868 3.82304 3.25533ZM11.7354 26.7832C11.4018 26.4561 10.9865 26.0491 10.1864 26.0491C9.38595 26.0491 8.97066 26.4562 8.63695 26.7833C8.35105 27.0636 8.14444 27.2662 7.70331 27.2662C7.26178 27.2662 7.05511 27.0636 6.76903 26.7832C6.43532 26.4561 6.01992 26.0491 5.21959 26.0491C4.56547 26.0491 4.16876 26.3269 3.89634 26.569C3.73204 26.7149 3.56626 26.6433 3.50263 26.6057C3.45018 26.5747 3.28318 26.4555 3.33609 26.2216C3.48716 25.552 3.71305 25.083 3.85374 24.8346C6.6219 25.1714 9.42433 25.3514 12.1951 25.37C12.2571 26.082 12.4963 26.7149 12.9029 27.244C12.8337 27.258 12.7568 27.2662 12.6697 27.2662C12.2282 27.2662 12.0214 27.0636 11.7354 26.7832ZM14.1696 27.2592C13.4408 26.7283 13.0663 25.979 13.0566 25.032C13.046 24.0147 13.4938 23.7693 13.8479 23.6816C15.0762 23.5149 16.1888 25.3465 17.3656 27.2859L17.5225 27.5443C17.612 27.6916 17.7107 27.8338 17.8174 27.9709C16.6313 28.1531 15.1639 27.9834 14.1696 27.2592Z" fill="black"/>
<path d="M24.9206 26.1292L24.8987 26.1421C24.6894 26.2648 24.6192 26.5341 24.742 26.7434C24.8238 26.8829 24.9706 26.9606 25.1215 26.9606C25.197 26.9606 25.2735 26.9412 25.3434 26.9002L25.3652 26.8874C25.5746 26.7646 25.6448 26.4954 25.522 26.286C25.3991 26.0766 25.13 26.0065 24.9206 26.1292Z" fill="black"/>
<path d="M25.7463 25.9428C25.8218 25.9428 25.8983 25.9233 25.9682 25.8824L25.9901 25.8695C26.1994 25.7468 26.2696 25.4775 26.1469 25.2682C26.0241 25.0588 25.7548 24.9886 25.5455 25.1114L25.5236 25.1242C25.3143 25.247 25.2441 25.5162 25.3669 25.7256C25.4486 25.8651 25.5955 25.9428 25.7463 25.9428Z" fill="black"/>
<path d="M24.3153 25.0958L24.2934 25.1087C24.084 25.2314 24.0138 25.5007 24.1366 25.71C24.2185 25.8495 24.3653 25.9272 24.5161 25.9272C24.5917 25.9272 24.6681 25.9078 24.738 25.8668L24.7599 25.854C24.9693 25.7312 25.0395 25.462 24.9166 25.2527C24.7938 25.0432 24.5247 24.9731 24.3153 25.0958Z" fill="black"/>
</svg>
